<?xml version="1.0" encoding="UTF-8" standalone="no"?>
<!DOCTYPE svg PUBLIC "-//W3C//DTD SVG 1.1//EN" "http://www.w3.org/Graphics/SVG/1.1/DTD/svg11.dtd">
<svg width="100%" height="100%" viewBox="0 0 1779 1919" version="1.1" xmlns="http://www.w3.org/2000/svg" xmlns:xlink="http://www.w3.org/1999/xlink" xml:space="preserve" xmlns:serif="http://www.serif.com/" style="fill-rule:evenodd;clip-rule:evenodd;stroke-linejoin:round;stroke-miterlimit:2;">
    <g transform="matrix(1,0,0,1,-100,-107)">
        <path id="Kwesi-Arter-Logo" serif:id="Kwesi Arter Logo" d="M1879,2025C1870.99,2025.08 1857.05,2020.28 1850,2018C1845.89,2016.67 1842.7,2017.22 1838.5,2016C1829.25,2013.31 1818.28,2011.6 1809,2009C1799.18,2006.25 1789.52,2006.62 1779.5,2004C1750.09,1996.32 1716.83,1995.29 1686.5,1988C1679.67,1986.36 1673.84,1987.61 1667,1986C1647.17,1981.34 1624.81,1982.1 1604.5,1977.5C1597.23,1975.85 1589.57,1976.52 1583,1975L1577,1975C1567.64,1972.84 1555.86,1973.21 1546.5,1971L1539,1971C1531.33,1969.23 1521.31,1969.74 1513.5,1968L1507,1968C1487.7,1963.67 1464.37,1966.38 1445,1962C1440.57,1961 1435.53,1961.79 1432,1961C1426.57,1959.78 1420.69,1961.04 1416,1960C1408.33,1959.67 1400.67,1959.33 1393,1959C1376.35,1955.33 1355.66,1958.69 1339,1955L1327,1955C1319.95,1953.45 1308.84,1953.25 1301.5,1953L1288.5,1953C1282.48,1951.68 1273.38,1952.91 1267,1951.5L1257,1951.5C1249.02,1949.76 1238.86,1952.33 1230.5,1950.5C1219.17,1950 1207.83,1949.5 1196.5,1949C1191.54,1940.91 1186.26,1933.02 1183,1923L1182,1913C1179.83,1903.45 1180.14,1891.53 1178,1882.5C1177.28,1879.45 1179.85,1875.6 1180.5,1873C1181.99,1867.02 1181.44,1853.73 1180,1848C1177.69,1838.82 1176.44,1829.56 1174,1820C1173.14,1816.64 1170.99,1810.37 1172,1806C1172.69,1803.03 1174.27,1801.7 1175,1800L1175,1792L1174,1771.5L1174,1753C1171.31,1740.85 1174.78,1725.59 1172,1713.5L1172,1701C1170.23,1693.07 1171.78,1682.21 1170,1674.5L1170,1664C1168.1,1655.63 1168.95,1644.67 1167,1636.5L1167,1629.5C1163.3,1613.69 1163.08,1596.13 1159,1581.5L1158,1571.5C1155.38,1560.84 1154.9,1547.86 1152,1537.5C1151.07,1534.16 1152.01,1532.22 1151,1529C1148.99,1522.59 1147.58,1515.25 1145,1509C1143.54,1505.47 1141.23,1501.36 1140,1497.5C1138.08,1491.44 1139.77,1481.8 1141,1476.5L1141,1466.5C1141,1456.45 1140.06,1444.5 1142,1436L1142,1427.5C1142,1417.71 1142,1407.65 1140,1399.5L1140,1394C1138.02,1385.77 1137.71,1376.59 1135,1368.5C1130.06,1353.73 1124.08,1338.97 1120,1324C1118.5,1318.49 1122.64,1306.71 1123.5,1301.5C1125.08,1291.95 1118.28,1281.7 1122,1272C1127.49,1257.67 1150.75,1258.99 1167.5,1263C1168.95,1262.43 1170.52,1261 1172.5,1260.5C1175.18,1259.82 1177.22,1260.73 1179,1259.5C1179.4,1258.99 1179.18,1259.36 1179.5,1258.5C1180.39,1257.16 1179.75,1255.64 1179.5,1254C1185.17,1251.09 1191.98,1251.03 1199,1249C1208.68,1246.2 1219.73,1243.81 1229.5,1241C1234.98,1239.42 1244.42,1239.36 1248.5,1236.5C1248.9,1235.99 1248.68,1236.36 1249,1235.5C1246.05,1232.05 1245.75,1226.68 1244,1222C1241.18,1214.49 1238.56,1205.75 1236,1198C1234.06,1192.12 1234.02,1186.84 1232,1181C1221.11,1149.43 1212.51,1115.69 1201,1084.5C1198.7,1078.26 1198.31,1072.25 1196,1066C1193.48,1059.18 1190.58,1051.29 1188,1044.5C1186.39,1040.27 1186.07,1036.3 1184,1032.5C1182.02,1028.86 1173.89,1022.83 1176,1016C1183.59,991.477 1198.45,973.901 1208,951.5C1211.3,943.753 1211.67,934.506 1214,925.5C1215.07,921.349 1213.96,918.512 1215,914.5C1215.96,910.781 1217.4,906.854 1219,904C1218.94,903.489 1218.06,902.753 1218,902.5C1217.18,898.856 1220.3,895.897 1221,893.5C1221.83,890.67 1219.32,889.828 1219.5,888C1219.64,886.625 1220.68,883.789 1221,882.5C1221.17,878 1221.33,873.5 1221.5,869C1221.72,868.338 1222.76,868.608 1222.5,867C1222.09,864.438 1218.85,861.811 1220,858C1220.47,856.446 1222.03,854.287 1222.5,852.5C1223.64,848.125 1221.09,844.726 1221,841L1221,828C1220.44,825.929 1218.83,822.134 1219.5,819C1221.63,809.105 1218.91,797.952 1217,790C1214.95,781.496 1219.28,772.844 1217,765C1215,759.001 1213,752.999 1211,747C1209.19,740.833 1209.43,734.099 1208,728C1206.64,722.193 1210.88,720.152 1209.5,714.5C1208.33,709.701 1205.99,704.876 1205,700C1204.37,696.907 1205.01,691.947 1205,687C1199.45,683.267 1197.54,676.294 1194,670.5C1190.67,665.044 1185.93,659.508 1183,654C1182.07,652.257 1183.61,652.044 1183,650C1182.32,647.724 1179.29,644.331 1177.5,643C1173.85,640.281 1169.18,637.436 1164.5,636C1160.35,634.726 1155.76,635.592 1152,634C1150.18,633.232 1148.53,630.621 1147,630C1144.89,629.146 1140.5,631.179 1137.5,630.5C1132.15,629.29 1126.6,629.577 1121.5,628C1114.13,625.723 1112.05,621.775 1106.5,619C1101.83,616.663 1096.05,616.899 1091,615C1086.4,613.271 1085.57,610.064 1079,610C1078.72,604.736 1075.22,602.357 1073,599C1067.38,590.51 1063.9,583.266 1053,580C1048.57,578.673 1040.47,580.057 1037,577.5C1036.23,576.344 1036.44,573.447 1036.5,571.5C1032.21,564.507 1046.23,554.684 1048,550C1049.4,546.293 1047.98,542.09 1049,537.5C1051.51,526.249 1049.67,516.001 1047.5,506.5C1046.64,506.2 1045.92,506.055 1044.5,506C1043.69,507.158 1043.77,507.176 1042,507.5C1042.16,493.127 1036.94,479.443 1032,469.5C1020.47,446.278 1008.17,430.999 983.5,421C962.827,412.621 931.288,416.095 914,425C893.318,435.654 879.81,451.804 872,475.5C871,481.333 870,487.167 869,493L869,503C867.981,507.85 868.248,517.5 869.5,523C870.43,527.083 870.601,531.851 872,536C873.343,539.983 875.891,543.937 877,548C874.338,547.923 873.559,548.031 872.5,549.5C869.745,553.013 873.688,560.567 875,563.5C878.856,572.119 884.619,589.901 893,593L900,593C901.282,592.052 903.213,591.976 905.5,592C907.991,596.968 912.203,601.703 916,605.5C918.154,607.654 921.235,608.411 922,612C911.396,618.948 903.16,630.667 897,642C893.061,649.246 890.378,656.307 884.5,661.5C877.707,667.501 868.403,669.465 859,673C849.154,676.701 838.881,683.218 833,691C828.543,696.897 818.364,706.868 816,713.5L815,723C813.897,726.371 810.37,728.767 809,732C805.975,739.138 807.314,748.339 805,756C802.129,765.503 799.511,776.412 797,786C796.667,791 796.333,796.001 796,801C794.401,806.753 791.074,812.731 789,818.5C787.357,823.068 788.602,827.725 788,831C786.906,836.945 781.044,841.391 779,847C776.008,855.213 778.207,867.898 775,876C773.056,880.911 766.71,887.032 764,892.5C761.858,896.823 764.035,903.851 762.5,909C760.334,912.833 758.166,916.667 756,920.5C752.52,928.488 751.991,936.291 752,947C750.579,947.873 750.109,948.888 749,950C749.912,953.483 752.191,954.414 752.5,958.5C742.767,966.492 748.619,983.802 745,998C743.253,1004.85 739.783,1009.73 738,1016.5L737,1035.5C736.4,1037.97 735.097,1040.87 734.5,1043.5C734.667,1048.17 734.833,1052.83 735,1057.5L735,1066C736.69,1072.13 746.944,1077.7 750,1084.5C752.136,1089.26 749.275,1098.88 751,1104.5C755.087,1117.82 764.803,1128.88 765,1145.5C753.112,1155.21 747.357,1171.71 742,1188C740.999,1191.04 736.989,1202.89 739.5,1207C741.916,1215.45 753.674,1215.64 757.5,1223C758.377,1222.68 757.986,1222.9 758.5,1222.5C761.703,1218.21 761.907,1207.67 768.5,1207C773.112,1204.42 778.34,1210.38 780,1213C783.029,1217.79 785.503,1222.59 787,1229C788.676,1236.18 786.299,1243.28 788,1250C789.805,1257.13 790.21,1266.91 792,1274.5L792,1279.5C800.891,1315.14 800.886,1357.86 811,1391.5C812.157,1395.35 811.745,1398.13 813,1402C817.485,1415.81 820.268,1431.48 824,1446C825.697,1452.6 825.541,1459.78 827,1466C828.41,1472.02 826.591,1476.88 828,1483C831.348,1497.54 829.77,1514.89 833,1529.5C833.167,1533.17 833.333,1536.83 833.5,1540.5C836.564,1554.15 835.77,1569.94 839,1583L839,1588C842.087,1600.88 841.991,1616.06 846,1628.5C848.161,1635.2 851.049,1642.24 853,1649C854.922,1655.66 855.418,1662.72 857,1669C860.375,1682.39 859.793,1696.88 863,1710L863,1716C865.068,1724.45 865.046,1735.36 867,1744L867,1751C869.071,1760.35 867.902,1772.27 870,1782L870,1794C871.607,1801.51 871.301,1818.92 869.5,1826C868.494,1829.95 866.129,1833.33 865,1837C863.799,1840.9 865.202,1843.96 864,1848C863.719,1848.95 862.27,1851.55 862,1852.5C860.92,1856.29 863.267,1859.99 862,1864C858.863,1873.93 850.685,1881.43 843,1887C837.697,1890.85 833.098,1895.96 827,1899C818.017,1903.49 808.153,1904.51 798,1908C787.642,1911.56 777.866,1916.47 768.5,1921C757.311,1926.41 729.817,1924.24 730,1940C730.376,1940.54 730.301,1940.47 730.5,1941.5L729.5,1941.5C726.63,1943.23 720.764,1941.18 717,1942C707.951,1943.97 695.865,1942.07 687,1944L674,1944C667.773,1945.37 658.2,1944.64 652,1946L641,1946C636.987,1946.89 631.42,1945.91 626.5,1947C607.903,1951.11 586.058,1947.95 567.5,1952L559.5,1952C555.582,1952.88 548.875,1953.12 545,1954L537,1954C519.992,1957.9 500.086,1956.2 483,1960C477.834,1960.33 472.666,1960.67 467.5,1961C458.697,1963.03 447.733,1962.94 439,1965L433.5,1965C426.08,1966.77 417.697,1966.12 409.5,1968C403.931,1969.28 396.512,1969.7 391,1971L385.5,1971C363.197,1976.56 337.496,1976.12 315.5,1982L311,1982C302.752,1984.09 292.867,1984.99 284.5,1987L274.5,1988C246.949,1995.54 216.214,1997.77 189,2005C181.363,2007.03 174.495,2006.65 167,2009C154.86,2012.8 141.01,2013.97 128.5,2018C120.526,2020.57 109.166,2024.68 100,2025C100.883,2018.96 104.722,2012.22 107,2007C108.559,2003.43 108.606,2000.65 110,1997C112.719,1989.88 115.994,1981.9 119,1975C123.954,1963.64 126.571,1952.11 131,1940.5C138.745,1920.19 147.316,1898.82 155,1878.5C194.565,1773.89 232.64,1669.05 272,1565C287.245,1524.7 300.056,1483.48 317,1444.5C318.952,1440.01 319.269,1436.05 321,1431.5C325.695,1419.17 331.329,1405.86 336,1393.5C337.722,1388.94 338.044,1384.95 340,1380.5C344.507,1370.25 349.035,1358.49 353,1348C354.739,1343.4 355.05,1339.46 357,1335C378.663,1285.43 393.443,1231.59 415,1182C417.722,1175.74 418.262,1169.73 421,1163.5C425.51,1153.24 430.038,1141.48 434,1131C435.739,1126.4 436.05,1122.46 438,1118C444.055,1104.14 449.626,1088.7 455,1074.5C456.382,1070.85 456.44,1068.07 458,1064.5C468.55,1040.36 477.675,1013.65 487,989C491.529,977.027 495.666,965.457 500,954C501.062,951.191 500.796,949.24 502,946.5C516.113,914.39 526.005,879.176 540,847C543.06,839.965 543.913,833.022 547,826C558.046,800.871 566.018,773.119 577,748C579.732,741.752 580.275,735.699 583,729.5C591.693,709.723 598.115,688.716 606,668C617.157,638.688 628.899,608.341 640,579C670.436,498.553 699.788,417.92 730,338C743.922,301.173 755.514,263.616 771,228C774.414,220.149 775.94,212.55 779,204.5C787.106,183.175 795.31,160.641 804,139.5C807.194,131.73 809.665,124.013 812.5,116.5C813.187,114.679 814.838,107.641 816,107L1164.5,107C1167.69,118.816 1173.71,130.702 1178,142C1184.83,160.008 1190.47,178.315 1198,195.5C1202.23,205.153 1203.78,214.86 1208,224.5C1221.36,255.042 1230.71,288.44 1244,319C1246.29,324.262 1246.81,329.204 1249,334.5C1255.5,350.238 1260.75,366.565 1267,383C1274.42,402.485 1282.63,423 1290,442.5C1295.53,457.135 1299.99,471.669 1306,485.5C1308.3,490.784 1308.94,495.575 1311,501C1315.37,512.485 1320.1,525.24 1325,536.5C1328.07,543.549 1328.91,550.438 1332,557.5C1339.22,574.02 1344.81,592.462 1352,609C1355.06,616.037 1355.93,622.969 1359,630C1363.13,639.443 1367.35,650.353 1371,660C1372.72,664.547 1373.04,668.517 1375,673C1380.27,685.063 1385.34,698.68 1390,711C1391.72,715.558 1392.05,719.543 1394,724C1400.03,737.79 1404.44,752.377 1410,767C1417.4,786.463 1425.62,806.995 1433,826.5C1439.51,843.718 1445.68,860.801 1452,877.5C1453.72,882.047 1454.04,886.017 1456,890.5C1473.87,931.43 1486.11,976.085 1504,1017C1505.95,1021.46 1506.25,1025.4 1508,1030C1512.68,1042.32 1517.74,1055.96 1523,1068C1524.2,1070.74 1523.93,1072.69 1525,1075.5C1527.39,1081.78 1530.64,1088.76 1533,1095C1534.72,1099.55 1535.04,1103.52 1537,1108C1551.8,1141.9 1562.18,1179.11 1577,1213C1578.95,1217.46 1579.27,1221.44 1581,1226C1583.38,1232.26 1586.62,1239.17 1589,1245.5C1590.06,1248.31 1589.8,1250.26 1591,1253C1601.31,1276.46 1608.75,1302.43 1619,1326C1622.06,1333.03 1622.9,1339.89 1626,1347C1636.55,1371.16 1644.41,1396.81 1654,1422C1672.25,1469.95 1689.55,1518.52 1708,1567C1727.31,1617.74 1746.8,1669.72 1766,1720.5C1777.92,1752.01 1787.79,1784.11 1801,1814.5C1803.29,1819.76 1803.81,1824.7 1806,1830C1812.5,1845.76 1817.75,1862.05 1824,1878.5C1831.41,1897.99 1839.63,1918.48 1847,1938C1851.51,1949.94 1855.7,1961.59 1860,1973C1861.06,1975.81 1860.8,1977.76 1862,1980.5C1866.46,1990.68 1869.88,2001.62 1874,2012.5C1875.46,2016.35 1878,2020.72 1879,2025ZM1107,720L1108,720C1107.99,727.475 1109.4,736.407 1111,743L1111,748.5C1113.13,757.782 1112.79,769.354 1115,778.5L1115,784.5C1116.81,792.069 1116.39,801.901 1119,809C1122.22,817.762 1124.54,828.468 1128,837.5C1128.84,839.684 1133.6,846.968 1133,849.5C1131.99,853.747 1129.44,859.315 1128,863.5C1123.51,876.52 1121.12,890.393 1117,903C1116.15,905.609 1116.86,907.002 1116,909.5C1109.71,927.843 1106.43,947.437 1100,966C1096.53,976.012 1093.46,987.281 1089,997C1087.24,1000.85 1083.88,1005.05 1083,1009.5C1084.85,1010.66 1086.18,1012.92 1088,1014C1098.33,1020.11 1112.42,1023.79 1124,1028C1127.95,1029.44 1138.77,1031.11 1140.5,1034L1138,1034C1132.7,1030.52 1124.4,1031.17 1118,1029C1107.99,1025.61 1097.01,1022.65 1088.5,1018C1084.74,1015.95 1078.3,1014.36 1078,1009C1082.19,1005.2 1083.64,997.053 1086,991.5C1090.36,981.246 1094.06,969.239 1098,958.5C1099.99,953.069 1100.03,947.94 1102,942.5C1109.9,920.683 1113.39,896.499 1121,874C1123.03,868.016 1124.68,861.373 1127,855C1127.63,853.265 1129.97,850.56 1129,847.5C1127.77,843.62 1124.52,839.02 1123,835C1121.34,830.617 1121.43,826.681 1120,822C1117.81,814.833 1115.24,806.912 1113,800C1110.73,792.995 1112.73,783.654 1111,776C1108.46,764.788 1108.59,752.253 1106,742C1104.1,734.468 1107.01,727.316 1107,720ZM807,942C802.06,942.188 798.378,941.364 796.5,938.5L798,938.5C800.012,940.49 807.596,940.913 809.5,938.5C811.309,936.255 811.976,931.863 812,928C810.954,927.439 811.084,927.283 809.5,927C807.841,928.917 804.141,929.081 800.5,929C798.924,927.535 797.315,927.338 796.5,925L797.5,925C799.037,927.113 804.291,928.484 807,926.5C809.246,925.952 810.811,924.599 811.5,922.5C814.266,918.801 814.955,909.284 815,903.5L815,894C815.965,889.554 814.782,883.996 816,879C816.913,875.258 818.168,870.645 818.5,866.5L818,866.5C815.436,869.295 813.072,871.074 807.5,871C806.989,870.598 807.363,870.823 806.5,870.5L806.5,869.5C806.667,869.333 806.833,869.167 807,869C815.42,868.9 820.008,862.716 822,856.5C821.833,850.001 821.667,843.499 821.5,837C823.11,830.178 824.304,821.694 826,814.5C827.867,806.58 826.316,797.129 828,789.5L828,776C830.613,764.205 829.841,751.091 833.5,741L834.5,741L834.5,744C830.971,749.66 832.802,764.508 831,772.5C830.173,776.166 831.028,781.412 830,786C826.472,801.742 828.426,821.415 825,836.5L825,858.5C823.544,863.772 821.557,870.667 820,876.5L820,882C818.515,888.344 818.451,896.902 817,903C814.522,913.416 816.828,925.062 814,935C812.88,938.937 810.189,941.869 809,945.5C806.145,954.218 807.344,963.515 805,972.5C799.446,993.786 797.421,1017.21 792,1039C790.852,1043.62 789.999,1054.82 790.5,1059.5C790.747,1061.81 791.818,1066.93 791,1070C788.888,1077.91 789.424,1088.17 787,1096.5C785.29,1102.37 781.565,1107.39 780,1113L779,1113L779,1111.5C786.01,1103.25 784.945,1080.41 788,1068L789,1049C792.483,1033.95 793.394,1017.53 797,1003C797.853,999.564 797.046,997.494 798,994C800.646,984.309 800.892,973.535 803.5,963C805.088,956.586 806.798,949.202 807,942ZM1073.5,1017C1076.03,1018.01 1076.88,1021.48 1079,1023C1081.08,1024.49 1084.72,1026.14 1087,1027C1103.8,1033.36 1123.4,1034.19 1140.5,1040.5L1140.5,1041.5L1138,1041.5C1133.96,1039.1 1128.05,1040.3 1123,1039C1110.11,1035.69 1095.12,1034.3 1083.5,1030C1078.68,1028.22 1071.11,1026.73 1070.5,1021C1071.75,1020.04 1072.7,1018.37 1073.5,1017ZM975,1387C975.462,1390.61 976.457,1393.41 976.5,1398C975.462,1397.81 975.538,1397.88 975,1397.5C973.377,1395.67 973.088,1390.65 973,1387.5C973.167,1387.33 973.333,1387.17 973.5,1387L975,1387ZM983.5,1451C986.163,1453.14 985.699,1457.41 987,1461C989.461,1467.79 990.685,1474.93 993,1482.5C1001.13,1509.1 1004.55,1538.21 1014,1563.5C1015.94,1568.7 1018.85,1574.6 1021,1579.5L1023,1588.5C1025.82,1596.94 1029.02,1605.97 1033,1614C1037.48,1623.04 1041.3,1632.61 1046,1642C1047.6,1645.2 1050.54,1649.36 1051.5,1653C1051.33,1655 1051.17,1657 1051,1659C1050.89,1667.64 1050.01,1677.13 1052,1684.5C1056.11,1699.69 1059.83,1715.06 1064,1730C1066.29,1738.19 1065.65,1747.03 1067.5,1755.5C1068.37,1759.47 1066.73,1764.75 1066,1768C1064.71,1773.72 1065.87,1791.68 1067,1796.5C1069.52,1807.2 1071.38,1817.39 1075,1827C1077.15,1832.69 1081.4,1838.18 1083,1844C1086.47,1856.63 1073.18,1868.18 1076.5,1882.5C1079.19,1894.13 1084.09,1903.78 1087,1915.5C1089.24,1924.54 1083.64,1928.26 1083.5,1935C1086.08,1937.61 1088.02,1940.8 1088,1946C1085.31,1946.91 1080.51,1946.54 1077,1946.5C1073.86,1944.57 1056.62,1946 1051.5,1946L1000,1946C992.919,1946 982.553,1947.48 976.5,1945.5C978.91,1940.46 984.134,1932.3 982,1923.5C980.668,1918 976.149,1902.5 978,1895.5C978.75,1892.66 981.224,1890.31 982,1888C984.377,1880.93 979.278,1866.33 978,1862L978,1843.5C976.595,1837.7 973.716,1828.72 975.5,1820.5C976.285,1816.89 978.274,1811.36 977,1806.5C975.624,1801.25 972.934,1796.4 971,1792C969.152,1787.8 969.042,1782.28 968,1777.5C966.84,1772.18 968.122,1764.5 969,1760.5L969,1754C970.395,1748.26 971.503,1740.98 973,1735.5C976.773,1721.69 977.661,1707.76 981,1694C982.859,1686.34 981.402,1677.93 983,1670.5C983.931,1666.17 983.264,1658.55 982.5,1655C982.333,1650.67 982.167,1646.33 982,1642C980.049,1633.93 977.893,1625.58 976,1618C975.333,1611.33 974.667,1604.67 974,1598L973,1554C972.998,1524.93 974.382,1495.58 981,1473.5C983.147,1466.34 982.042,1458.44 983.5,1451Z" style="fill:#8c98ff;"/>
    </g>
</svg>
